<svg width="120" height="58" viewBox="0 0 120 58" fill="none" xmlns="http://www.w3.org/2000/svg">
<path d="M37.048 22.6643C37.048 24.4628 36.722 26.1826 36.07 27.8238C35.418 29.4425 34.5525 30.9712 33.4734 32.41C32.4167 33.8264 31.2027 35.1416 29.8314 36.3556C29.2494 36.8696 26.5795 38.276 23.6197 39.7868C21.6632 40.7854 22.3769 42.736 24.52 42.2547L33.7859 40.174C35.0825 39.8828 36.2973 40.9138 36.2208 42.2406L35.6767 51.671C35.6141 52.7555 34.6973 53.5918 33.6117 53.5547L5.9317 52.6084C4.8543 52.5715 4 51.6875 4 50.6095V41.7003C4 40.8436 4.5471 40.0857 5.3491 39.7846C6.1249 39.4933 6.9229 39.1709 7.7432 38.8173C9.0696 38.2328 10.3623 37.5696 11.6213 36.8277C12.9027 36.0858 14.1055 35.254 15.2296 34.3322C16.3761 33.4105 17.3766 32.41 18.2309 31.3309C19.1076 30.2293 19.7933 29.0378 20.2879 27.7563C20.805 26.4749 21.0635 25.0923 21.0635 23.6085C21.0635 22.7542 20.9062 22.0011 20.5914 21.3491C20.2992 20.6971 19.8833 20.1576 19.3437 19.7304C18.8041 19.2808 18.1746 18.9548 17.4552 18.7525C16.7583 18.5277 16.0052 18.4152 15.1958 18.4152C14.5214 18.4152 13.8357 18.4939 13.1388 18.6513C12.4418 18.7862 11.7562 18.9885 11.0817 19.2583C10.4073 19.5281 9.7665 19.8653 9.1595 20.27C8.421 20.7529 7.3157 20.4321 7.1225 19.5712L4.8481 9.4399C4.698 8.7713 4.8926 8.062 5.4219 7.6266C6.0472 7.1123 6.731 6.6618 7.4734 6.2752C8.5525 5.7131 9.6878 5.2635 10.8794 4.9263C12.0709 4.5666 13.2849 4.308 14.5214 4.1507C15.7579 3.9933 16.9719 3.9146 18.1634 3.9146C20.8162 3.9146 23.2892 4.398 25.5823 5.3647C27.8755 6.3089 29.8651 7.6241 31.5512 9.3102C33.2598 10.9738 34.5975 12.9522 35.5642 15.2453C36.5534 17.5385 37.048 20.0114 37.048 22.6643Z" fill="white"/>
<path d="M37.9366 7.7259C37.9366 8.0201 37.9327 8.3117 37.9249 8.6007C37.9161 9.0835 37.513 9.4611 37.0302 9.4527L36.8728 9.45C36.2283 9.4388 35.7463 8.8565 35.8297 8.2173C35.837 8.1615 35.8441 8.1058 35.8511 8.0501C35.9083 7.5892 35.937 7.1244 35.937 6.6558C35.937 6.6219 35.9357 6.5673 35.9331 6.4917C35.9305 6.4162 35.9253 6.3316 35.9175 6.2379C35.9096 6.1415 35.8979 6.0439 35.8823 5.945C35.8693 5.8434 35.8498 5.751 35.8237 5.6677C35.8003 5.5844 35.7703 5.5167 35.7339 5.4646C35.7 5.4099 35.6584 5.3826 35.6089 5.3826C35.5204 5.3826 35.4449 5.4086 35.3824 5.4607C35.3225 5.5128 35.2717 5.5804 35.2301 5.6638C35.191 5.7445 35.1598 5.8356 35.1363 5.9372C35.1129 6.0387 35.0947 6.1402 35.0817 6.2418C35.0712 6.3433 35.0634 6.4397 35.0582 6.5308C35.0556 6.6193 35.0543 6.6922 35.0543 6.7495C35.0413 7.2104 35.0309 7.6686 35.0231 8.1243C35.0204 8.2781 35.0175 8.4325 35.0142 8.5875C35.0034 9.1011 34.5942 9.5162 34.0809 9.5383C33.5022 9.5633 33.0285 9.0831 33.0601 8.5047C33.0905 7.949 33.1199 7.3951 33.1484 6.8432C33.1826 6.2151 33.2118 5.5844 33.2361 4.9512C33.2545 4.4712 33.6349 4.0828 34.1147 4.0584L34.9398 4.0164C35.0311 4.0118 35.1071 4.0858 35.1048 4.1772L35.1019 4.2899C35.0991 4.4023 35.2457 4.4596 35.3277 4.3827C35.4136 4.3046 35.5048 4.2382 35.6011 4.1836C35.6974 4.1263 35.799 4.082 35.9057 4.0508C36.0151 4.0169 36.1297 4 36.2494 4C36.4707 4 36.6647 4.0365 36.8314 4.1094C36.998 4.1823 37.1412 4.2812 37.261 4.4062C37.3807 4.5312 37.481 4.6796 37.5617 4.8514C37.6424 5.0207 37.7075 5.2016 37.757 5.3943C37.8064 5.587 37.8442 5.7887 37.8702 5.9996C37.8963 6.2079 37.9132 6.4136 37.921 6.6167C37.9314 6.8198 37.9366 7.0164 37.9366 7.2065C37.9366 7.3965 37.9366 7.5697 37.9366 7.7259Z" fill="white"/>
<path d="M42.7327 6.6011C42.7327 6.9656 42.6858 7.2924 42.5921 7.5814C42.4983 7.8704 42.3668 8.1269 42.1976 8.3508C42.031 8.5721 41.8318 8.7609 41.6 8.9171C41.3683 9.0733 41.1144 9.2022 40.8385 9.3037C40.5625 9.4027 40.2682 9.4756 39.9558 9.5225C39.646 9.5693 39.327 9.5928 38.9989 9.5928C38.8766 9.5928 38.7568 9.5902 38.6396 9.5849C38.4361 9.5714 38.2837 9.397 38.2881 9.1931L38.3702 5.373C38.3819 4.8321 38.7352 4.3421 39.2723 4.2773C39.577 4.2382 39.879 4.2187 40.1784 4.2187C40.5507 4.2187 40.8931 4.2708 41.2056 4.3749C41.518 4.4791 41.7875 4.6327 42.014 4.8358C42.2406 5.0363 42.4163 5.2849 42.5413 5.5818C42.6689 5.876 42.7327 6.2158 42.7327 6.6011ZM40.1079 7.6512C40.092 7.882 40.2999 8.0719 40.5026 7.9602C40.6328 7.8873 40.7447 7.7988 40.8385 7.6947C40.9322 7.5879 41.0038 7.4681 41.0533 7.3353C41.1053 7.2 41.1314 7.0568 41.1314 6.9057C41.1314 6.7573 41.1157 6.6193 41.0845 6.4917C41.0533 6.3616 41.0025 6.2496 40.9322 6.1559C40.8619 6.0595 40.7695 5.984 40.6549 5.9293C40.4375 5.8206 40.2199 6.0275 40.2031 6.27L40.1079 7.6512Z" fill="white"/>
<path d="M51.7358 47.6384C51.7358 48.6611 51.5566 49.557 51.1983 50.326C50.8474 51.0874 50.3621 51.722 49.7425 52.2297C49.1303 52.7373 48.4099 53.1181 47.5812 53.3719C46.76 53.6257 45.8754 53.7526 44.9272 53.7526C44.5614 53.7526 44.1583 53.7041 43.7178 53.6071C43.2848 53.51 42.8444 53.3906 42.3964 53.2487C41.9485 53.0994 41.5155 52.9426 41.0974 52.7784C40.4362 52.5019 40.0512 51.8178 40.1273 51.1051L40.2499 49.9572C40.3632 48.8962 41.5659 48.2861 42.598 48.5566C43.3744 48.7507 44.1359 48.8478 44.8825 48.8478C45.0243 48.8478 45.196 48.844 45.3976 48.8366C45.5991 48.8217 45.7895 48.7881 45.9687 48.7358C46.1553 48.6761 46.3121 48.5902 46.439 48.4782C46.5659 48.3663 46.6294 48.2057 46.6294 47.9967C46.6294 47.8549 46.5846 47.7354 46.495 47.6384C46.4054 47.5339 46.2897 47.4517 46.1479 47.392C46.006 47.3248 45.8455 47.2763 45.6663 47.2464C45.4872 47.2091 45.3117 47.183 45.14 47.168C44.9683 47.1531 44.8078 47.1456 44.6585 47.1456C44.5092 47.1456 44.3897 47.1456 44.3001 47.1456C43.6581 47.1456 43.0721 47.0337 42.542 46.8097C42.0194 46.5857 41.5678 46.2759 41.187 45.8802C40.8137 45.4771 40.5226 45.003 40.3136 44.4581C40.1045 43.9056 40 43.3084 40 42.6663C40 41.7854 40.1754 40.9978 40.5263 40.3035C40.8847 39.6017 41.3587 39.0082 41.9485 38.523C42.5457 38.0302 43.2288 37.6532 43.9978 37.3919C44.7667 37.1306 45.5618 37 46.383 37C46.7488 37 47.1258 37.0149 47.514 37.0448C47.9023 37.0672 48.2867 37.112 48.6675 37.1792C49.0557 37.2464 49.4327 37.3322 49.7985 37.4367C50.442 37.6206 50.7985 38.2715 50.7361 38.9379L50.5689 40.7243C50.4901 41.5669 49.6429 42.1156 48.813 41.9496C48.2606 41.8302 47.7193 41.7705 47.1893 41.7705C47.0922 41.7705 46.9653 41.7742 46.8086 41.7817C46.6592 41.7817 46.4987 41.7929 46.327 41.8153C46.1628 41.8302 45.9948 41.8563 45.8231 41.8936C45.6514 41.931 45.4984 41.9832 45.364 42.0504C45.2296 42.1101 45.1213 42.1923 45.0392 42.2968C44.9571 42.4013 44.9198 42.5245 44.9272 42.6663C44.9347 42.8306 44.9944 42.965 45.1064 43.0695C45.2259 43.1665 45.3752 43.2449 45.5543 43.3046C45.741 43.3569 45.9426 43.3942 46.1591 43.4166C46.383 43.439 46.6033 43.4539 46.8198 43.4614C47.0363 43.4614 47.2378 43.4614 47.4245 43.4614C47.6111 43.4539 47.7641 43.4577 47.8836 43.4726C48.4808 43.5099 49.0183 43.6368 49.4961 43.8533C49.9739 44.0698 50.3771 44.3573 50.7056 44.7156C51.0415 45.074 51.2953 45.5032 51.467 46.0034C51.6462 46.4961 51.7358 47.0411 51.7358 47.6384Z" fill="white"/>
<path d="M61.8027 37.8725C62.6302 38.0289 63.088 38.8579 63.0164 39.697L62.7878 42.3762C62.7591 42.7134 62.4306 42.9375 62.0942 42.9015C61.8852 42.8791 61.6724 42.8679 61.4559 42.8679C60.9259 42.8679 60.4182 42.9351 59.9329 43.0695C59.4551 43.2038 59.0296 43.4092 58.6563 43.6854C58.2905 43.9616 57.9956 44.3125 57.7717 44.738C57.5552 45.1561 57.4469 45.6525 57.4469 46.2274C57.4469 46.6455 57.5066 47.0113 57.6261 47.3248C57.753 47.6309 57.9284 47.8885 58.1524 48.0975C58.3838 48.2991 58.6601 48.4521 58.9811 48.5566C59.3096 48.6611 59.6716 48.7134 60.0673 48.7134C60.3435 48.7134 60.6272 48.6873 60.9184 48.635C61.2095 48.5753 61.5007 48.4969 61.7919 48.3999C62.083 48.3028 62.363 48.1908 62.6317 48.0639C62.962 47.908 63.3654 48.1474 63.353 48.5124L63.2377 51.9004C63.2162 52.5322 62.8578 53.1153 62.2622 53.3271C61.9262 53.4391 61.5791 53.5361 61.2207 53.6183C60.8699 53.7078 60.5153 53.775 60.1569 53.8198C59.806 53.8646 59.4701 53.887 59.1491 53.887C58.089 53.887 57.1222 53.6892 56.2487 53.2935C55.3827 52.8978 54.6362 52.3603 54.0091 51.6809C53.3894 50.9941 52.9079 50.199 52.5645 49.2957C52.2211 48.3924 52.0494 47.4293 52.0494 46.4066C52.0494 45.1822 52.2211 44.04 52.5645 42.9799C52.9154 41.9198 53.4267 41.0015 54.0986 40.2251C54.778 39.4412 55.6141 38.8291 56.6071 38.3886C57.6074 37.9407 58.7534 37.7167 60.0449 37.7167C60.56 37.7167 61.0826 37.7578 61.6127 37.8399C61.6764 37.8497 61.7397 37.8606 61.8027 37.8725Z" fill="white"/>
<path d="M77.4573 51.1969C77.4828 52.2821 76.638 53.1894 75.5538 53.2415L73.98 53.317C72.8466 53.3714 71.895 52.473 71.8842 51.3383L71.8715 49.9932C71.8646 49.272 71.2781 48.691 70.5568 48.691C69.8471 48.691 69.2655 49.2543 69.2428 49.9637L69.1886 51.6597C69.1541 52.7389 68.2693 53.5959 67.1896 53.5959H66.1647C65.039 53.5959 64.135 52.6671 64.1654 51.5418L64.4804 39.889C64.5106 38.7699 65.4536 37.8935 66.572 37.9452L67.8768 38.0055C68.9767 38.0563 69.8287 38.9867 69.7827 40.0869L69.5829 44.8683C69.554 45.5607 70.1075 46.1378 70.8005 46.1378C71.4723 46.1378 72.0173 45.5942 72.0191 44.9224L72.0328 39.7646C72.0358 38.6415 72.9627 37.741 74.0854 37.7706L75.2424 37.801C76.308 37.8291 77.1643 38.6878 77.1893 39.7535L77.4573 51.1969Z" fill="white"/>
<path d="M92.408 45.018C92.408 45.6973 92.33 46.3543 92.173 46.9889C92.016 47.616 91.788 48.2057 91.49 48.7582C91.199 49.3106 90.84 49.8183 90.415 50.2812C89.997 50.7366 89.523 51.1285 88.992 51.457C88.47 51.7855 87.899 52.043 87.279 52.2297C86.66 52.4088 86.003 52.4984 85.308 52.4984C84.636 52.4984 83.9943 52.4126 83.3821 52.2409C82.7774 52.0692 82.2101 51.8303 81.68 51.5242C81.15 51.2106 80.6684 50.8373 80.2354 50.4043C79.8099 49.9639 79.4441 49.4786 79.138 48.9486C78.8394 48.411 78.6042 47.8362 78.4325 47.224C78.2683 46.6119 78.1861 45.9736 78.1861 45.3091C78.1861 44.6596 78.2645 44.0251 78.4213 43.4054C78.5781 42.7783 78.802 42.1885 79.0932 41.6361C79.3918 41.0836 79.7502 40.576 80.1682 40.1131C80.5863 39.6503 81.0529 39.2509 81.568 38.9149C82.0906 38.579 82.6543 38.3177 83.259 38.131C83.8637 37.9444 84.502 37.8511 85.174 37.8511C86.256 37.8511 87.242 38.019 88.13 38.355C89.026 38.6909 89.788 39.1725 90.415 39.7996C91.049 40.4192 91.538 41.1732 91.882 42.0616C92.233 42.9426 92.408 43.928 92.408 45.018ZM87.436 45.3091C87.436 44.9881 87.387 44.6783 87.29 44.3797C87.201 44.0736 87.066 43.8048 86.887 43.5734C86.708 43.3345 86.484 43.1441 86.215 43.0023C85.954 42.853 85.652 42.7783 85.308 42.7783C84.957 42.7783 84.644 42.8418 84.368 42.9687C84.091 43.0956 83.8525 43.271 83.6509 43.495C83.4568 43.7115 83.3075 43.9691 83.203 44.2677C83.0985 44.5588 83.0462 44.8687 83.0462 45.1971C83.0462 45.5107 83.091 45.8242 83.1806 46.1378C83.2702 46.4513 83.4045 46.735 83.5837 46.9889C83.7629 47.2427 83.9831 47.448 84.244 47.6048C84.513 47.7615 84.823 47.8399 85.174 47.8399C85.525 47.8399 85.838 47.7727 86.115 47.6384C86.398 47.4965 86.637 47.3099 86.831 47.0785C87.025 46.8396 87.175 46.5671 87.279 46.261C87.384 45.9549 87.436 45.6376 87.436 45.3091Z" fill="white"/>
<path d="M107.033 45.018C107.033 45.6973 106.955 46.3543 106.798 46.9889C106.641 47.616 106.413 48.2057 106.115 48.7582C105.824 49.3106 105.465 49.8183 105.04 50.2812C104.622 50.7366 104.147 51.1285 103.617 51.457C103.095 51.7855 102.524 52.043 101.904 52.2297C101.284 52.4088 100.627 52.4984 99.933 52.4984C99.261 52.4984 98.619 52.4126 98.007 52.2409C97.402 52.0692 96.835 51.8303 96.305 51.5242C95.775 51.2106 95.293 50.8373 94.86 50.4043C94.435 49.9639 94.069 49.4786 93.763 48.9486C93.464 48.411 93.229 47.8362 93.057 47.224C92.893 46.6119 92.811 45.9736 92.811 45.3091C92.811 44.6596 92.889 44.0251 93.046 43.4054C93.203 42.7783 93.427 42.1885 93.718 41.6361C94.017 41.0836 94.375 40.576 94.793 40.1131C95.211 39.6503 95.678 39.2509 96.193 38.9149C96.716 38.579 97.279 38.3177 97.884 38.131C98.489 37.9444 99.127 37.8511 99.799 37.8511C100.881 37.8511 101.867 38.019 102.755 38.355C103.651 38.6909 104.413 39.1725 105.04 39.7996C105.674 40.4192 106.163 41.1732 106.507 42.0616C106.857 42.9426 107.033 43.928 107.033 45.018ZM102.061 45.3091C102.061 44.9881 102.012 44.6783 101.915 44.3797C101.826 44.0736 101.691 43.8048 101.512 43.5734C101.333 43.3345 101.109 43.1441 100.84 43.0023C100.579 42.853 100.277 42.7783 99.933 42.7783C99.582 42.7783 99.269 42.8418 98.993 42.9687C98.716 43.0956 98.477 43.271 98.276 43.495C98.082 43.7115 97.932 43.9691 97.828 44.2677C97.723 44.5588 97.671 44.8687 97.671 45.1971C97.671 45.5107 97.716 45.8242 97.806 46.1378C97.895 46.4513 98.029 46.735 98.209 46.9889C98.388 47.2427 98.608 47.448 98.869 47.6048C99.138 47.7615 99.448 47.8399 99.799 47.8399C100.15 47.8399 100.463 47.7727 100.739 47.6384C101.023 47.4965 101.262 47.3099 101.456 47.0785C101.65 46.8396 101.8 46.5671 101.904 46.261C102.009 45.9549 102.061 45.6376 102.061 45.3091Z" fill="white"/>
<path d="M115.44 47.6608C116.619 47.6608 117.542 48.6754 117.431 49.8491L117.326 50.9587C117.234 51.9264 116.46 52.6882 115.491 52.7642L109.944 53.199C108.763 53.2915 107.761 52.344 107.788 51.1603L108.053 39.3359C108.077 38.2491 108.965 37.3807 110.052 37.3807H111.752C112.92 37.3807 113.84 38.3773 113.746 39.5414L113.265 45.5001C113.172 46.6642 114.091 47.6608 115.259 47.6608H115.44Z" fill="white"/>
</svg>
