<svg width="150" height="100" viewBox="0 0 150 100" fill="none" xmlns="http://www.w3.org/2000/svg">
<path d="M53.048 45.6643C53.048 47.4628 52.722 49.1826 52.07 50.8238C51.418 52.4425 50.5525 53.9712 49.4734 55.41C48.4167 56.8264 47.2027 58.1416 45.8314 59.3556C45.2494 59.8696 42.5795 61.276 39.6197 62.7868C37.6632 63.7854 38.3769 65.736 40.52 65.2547L49.7859 63.174C51.0825 62.8828 52.2973 63.9138 52.2208 65.2406L51.6767 74.671C51.6141 75.7555 50.6973 76.5918 49.6117 76.5547L21.9317 75.6084C20.8543 75.5715 20 74.6875 20 73.6095V64.7003C20 63.8436 20.5471 63.0857 21.3491 62.7846C22.1249 62.4933 22.9229 62.1709 23.7432 61.8173C25.0696 61.2328 26.3623 60.5696 27.6213 59.8277C28.9027 59.0858 30.1055 58.254 31.2296 57.3322C32.3761 56.4105 33.3766 55.41 34.2309 54.3309C35.1076 53.2293 35.7933 52.0378 36.2879 50.7563C36.805 49.4749 37.0635 48.0923 37.0635 46.6085C37.0635 45.7542 36.9062 45.0011 36.5914 44.3491C36.2992 43.6971 35.8833 43.1576 35.3437 42.7304C34.8041 42.2808 34.1746 41.9548 33.4552 41.7525C32.7583 41.5277 32.0052 41.4152 31.1958 41.4152C30.5214 41.4152 29.8357 41.4939 29.1388 41.6513C28.4418 41.7862 27.7562 41.9885 27.0817 42.2583C26.4073 42.5281 25.7665 42.8653 25.1595 43.27V43.27C24.421 43.7529 23.3157 43.4321 23.1225 42.5712L20.8481 32.4399C20.698 31.7713 20.8926 31.062 21.4219 30.6266C22.0472 30.1123 22.731 29.6618 23.4734 29.2752C24.5525 28.7131 25.6878 28.2635 26.8794 27.9263C28.0709 27.5666 29.2849 27.308 30.5214 27.1507C31.7579 26.9933 32.9719 26.9146 34.1634 26.9146C36.8162 26.9146 39.2892 27.398 41.5823 28.3647C43.8755 29.3089 45.8651 30.6241 47.5512 32.3102C49.2598 33.9738 50.5975 35.9522 51.5642 38.2453C52.5534 40.5385 53.048 43.0114 53.048 45.6643Z" fill="#252525"/>
<path d="M53.9366 30.7259C53.9366 31.0201 53.9327 31.3117 53.9249 31.6007V31.6007C53.9161 32.0835 53.513 32.4611 53.0302 32.4527L52.8728 32.45C52.2283 32.4388 51.7463 31.8565 51.8297 31.2173C51.837 31.1615 51.8441 31.1058 51.8511 31.0501C51.9083 30.5892 51.937 30.1244 51.937 29.6558C51.937 29.6219 51.9357 29.5673 51.9331 29.4917C51.9305 29.4162 51.9253 29.3316 51.9175 29.2379C51.9096 29.1415 51.8979 29.0439 51.8823 28.945C51.8693 28.8434 51.8498 28.751 51.8237 28.6677C51.8003 28.5844 51.7703 28.5167 51.7339 28.4646C51.7 28.4099 51.6584 28.3826 51.6089 28.3826C51.5204 28.3826 51.4449 28.4086 51.3824 28.4607C51.3225 28.5128 51.2717 28.5804 51.2301 28.6638C51.191 28.7445 51.1598 28.8356 51.1363 28.9372C51.1129 29.0387 51.0947 29.1402 51.0817 29.2418C51.0712 29.3433 51.0634 29.4397 51.0582 29.5308C51.0556 29.6193 51.0543 29.6922 51.0543 29.7495C51.0413 30.2104 51.0309 30.6686 51.0231 31.1243C51.0204 31.2781 51.0175 31.4325 51.0142 31.5875C51.0034 32.1011 50.5942 32.5162 50.0809 32.5383V32.5383C49.5022 32.5633 49.0285 32.0831 49.0601 31.5047C49.0905 30.949 49.1199 30.3951 49.1484 29.8432C49.1826 29.2151 49.2118 28.5844 49.2361 27.9512C49.2545 27.4712 49.6349 27.0828 50.1147 27.0584L50.9398 27.0164C51.0311 27.0118 51.1071 27.0858 51.1048 27.1772L51.1019 27.2899C51.0991 27.4023 51.2457 27.4596 51.3277 27.3827V27.3827C51.4136 27.3046 51.5048 27.2382 51.6011 27.1836C51.6974 27.1263 51.799 27.082 51.9057 27.0508C52.0151 27.0169 52.1297 27 52.2494 27C52.4707 27 52.6647 27.0365 52.8314 27.1094C52.998 27.1823 53.1412 27.2812 53.261 27.4062C53.3807 27.5312 53.481 27.6796 53.5617 27.8514C53.6424 28.0207 53.7075 28.2016 53.757 28.3943C53.8064 28.587 53.8442 28.7887 53.8702 28.9996C53.8963 29.2079 53.9132 29.4136 53.921 29.6167C53.9314 29.8198 53.9366 30.0164 53.9366 30.2065C53.9366 30.3965 53.9366 30.5697 53.9366 30.7259Z" fill="#F86E43"/>
<path d="M58.7327 29.6011C58.7327 29.9656 58.6858 30.2924 58.5921 30.5814C58.4983 30.8704 58.3668 31.1269 58.1976 31.3508C58.031 31.5721 57.8318 31.7609 57.6 31.9171C57.3683 32.0733 57.1144 32.2022 56.8385 32.3037C56.5625 32.4027 56.2682 32.4756 55.9558 32.5225C55.646 32.5693 55.327 32.5928 54.9989 32.5928C54.8766 32.5928 54.7568 32.5902 54.6396 32.5849V32.5849C54.4361 32.5714 54.2837 32.397 54.2881 32.1931L54.3702 28.373C54.3819 27.8321 54.7352 27.3421 55.2723 27.2773V27.2773C55.577 27.2382 55.879 27.2187 56.1784 27.2187C56.5507 27.2187 56.8931 27.2708 57.2056 27.3749C57.518 27.4791 57.7875 27.6327 58.014 27.8358C58.2406 28.0363 58.4163 28.2849 58.5413 28.5818C58.6689 28.876 58.7327 29.2158 58.7327 29.6011ZM56.1079 30.6512C56.092 30.882 56.2999 31.0719 56.5026 30.9602V30.9602C56.6328 30.8873 56.7447 30.7988 56.8385 30.6947C56.9322 30.5879 57.0038 30.4681 57.0533 30.3353C57.1053 30.2 57.1314 30.0568 57.1314 29.9057C57.1314 29.7573 57.1157 29.6193 57.0845 29.4917C57.0533 29.3616 57.0025 29.2496 56.9322 29.1559C56.8619 29.0595 56.7695 28.984 56.6549 28.9293V28.9293C56.4375 28.8206 56.2199 29.0275 56.2031 29.27L56.1079 30.6512Z" fill="#F86E43"/>
<path d="M67.7358 70.6384C67.7358 71.6611 67.5566 72.557 67.1983 73.326C66.8474 74.0874 66.3621 74.722 65.7425 75.2297C65.1303 75.7373 64.4099 76.1181 63.5812 76.3719C62.76 76.6257 61.8754 76.7526 60.9272 76.7526C60.5614 76.7526 60.1583 76.7041 59.7178 76.6071C59.2848 76.51 58.8444 76.3906 58.3964 76.2487C57.9485 76.0994 57.5155 75.9426 57.0974 75.7784V75.7784C56.4362 75.5019 56.0512 74.8178 56.1273 74.1051L56.2499 72.9572C56.3632 71.8962 57.5659 71.2861 58.598 71.5566V71.5566C59.3744 71.7507 60.1359 71.8478 60.8825 71.8478C61.0243 71.8478 61.196 71.844 61.3976 71.8366C61.5991 71.8217 61.7895 71.7881 61.9687 71.7358C62.1553 71.6761 62.3121 71.5902 62.439 71.4782C62.5659 71.3663 62.6294 71.2057 62.6294 70.9967C62.6294 70.8549 62.5846 70.7354 62.495 70.6384C62.4054 70.5339 62.2897 70.4517 62.1479 70.392C62.006 70.3248 61.8455 70.2763 61.6663 70.2464C61.4872 70.2091 61.3117 70.183 61.14 70.168C60.9683 70.1531 60.8078 70.1456 60.6585 70.1456C60.5092 70.1456 60.3897 70.1456 60.3001 70.1456C59.6581 70.1456 59.0721 70.0337 58.542 69.8097C58.0194 69.5857 57.5678 69.2759 57.187 68.8802C56.8137 68.4771 56.5226 68.003 56.3136 67.4581C56.1045 66.9056 56 66.3084 56 65.6663C56 64.7854 56.1754 63.9978 56.5263 63.3035C56.8847 62.6017 57.3587 62.0082 57.9485 61.523C58.5457 61.0302 59.2288 60.6532 59.9978 60.3919C60.7667 60.1306 61.5618 60 62.383 60C62.7488 60 63.1258 60.0149 63.514 60.0448C63.9023 60.0672 64.2867 60.112 64.6675 60.1792C65.0557 60.2464 65.4327 60.3322 65.7985 60.4367V60.4367C66.442 60.6206 66.7985 61.2715 66.7361 61.9379L66.5689 63.7243C66.4901 64.5669 65.6429 65.1156 64.813 64.9496V64.9496C64.2606 64.8302 63.7193 64.7705 63.1893 64.7705C63.0922 64.7705 62.9653 64.7742 62.8086 64.7817C62.6592 64.7817 62.4987 64.7929 62.327 64.8153C62.1628 64.8302 61.9948 64.8563 61.8231 64.8936C61.6514 64.931 61.4984 64.9832 61.364 65.0504C61.2296 65.1101 61.1213 65.1923 61.0392 65.2968C60.9571 65.4013 60.9198 65.5245 60.9272 65.6663C60.9347 65.8306 60.9944 65.965 61.1064 66.0695C61.2259 66.1665 61.3752 66.2449 61.5543 66.3046C61.741 66.3569 61.9426 66.3942 62.1591 66.4166C62.383 66.439 62.6033 66.4539 62.8198 66.4614C63.0363 66.4614 63.2378 66.4614 63.4245 66.4614C63.6111 66.4539 63.7641 66.4577 63.8836 66.4726C64.4808 66.5099 65.0183 66.6368 65.4961 66.8533C65.9739 67.0698 66.3771 67.3573 66.7056 67.7156C67.0415 68.074 67.2953 68.5032 67.467 69.0034C67.6462 69.4961 67.7358 70.0411 67.7358 70.6384Z" fill="#F86E43"/>
<path d="M77.8027 60.8725C78.6302 61.0289 79.088 61.8579 79.0164 62.697L78.7878 65.3762C78.7591 65.7134 78.4306 65.9375 78.0942 65.9015V65.9015C77.8852 65.8791 77.6724 65.8679 77.4559 65.8679C76.9259 65.8679 76.4182 65.9351 75.9329 66.0695C75.4551 66.2038 75.0296 66.4092 74.6563 66.6854C74.2905 66.9616 73.9956 67.3125 73.7717 67.738C73.5552 68.1561 73.4469 68.6525 73.4469 69.2274C73.4469 69.6455 73.5066 70.0113 73.6261 70.3248C73.753 70.6309 73.9284 70.8885 74.1524 71.0975C74.3838 71.2991 74.6601 71.4521 74.9811 71.5566C75.3096 71.6611 75.6716 71.7134 76.0673 71.7134C76.3435 71.7134 76.6272 71.6873 76.9184 71.635C77.2095 71.5753 77.5007 71.4969 77.7919 71.3999C78.083 71.3028 78.363 71.1908 78.6317 71.0639V71.0639C78.962 70.908 79.3654 71.1474 79.353 71.5124L79.2377 74.9004C79.2162 75.5322 78.8578 76.1153 78.2622 76.3271V76.3271C77.9262 76.4391 77.5791 76.5361 77.2207 76.6183C76.8699 76.7078 76.5153 76.775 76.1569 76.8198C75.806 76.8646 75.4701 76.887 75.1491 76.887C74.089 76.887 73.1222 76.6892 72.2487 76.2935C71.3827 75.8978 70.6362 75.3603 70.0091 74.6809C69.3894 73.9941 68.9079 73.199 68.5645 72.2957C68.2211 71.3924 68.0494 70.4293 68.0494 69.4066C68.0494 68.1822 68.2211 67.04 68.5645 65.9799C68.9154 64.9198 69.4267 64.0015 70.0986 63.2251C70.778 62.4412 71.6141 61.8291 72.6071 61.3886C73.6074 60.9407 74.7534 60.7167 76.0449 60.7167C76.56 60.7167 77.0826 60.7578 77.6127 60.8399C77.6764 60.8497 77.7397 60.8606 77.8027 60.8725Z" fill="#F86E43"/>
<path d="M93.4573 74.1969C93.4828 75.2821 92.638 76.1894 91.5538 76.2415L89.98 76.317C88.8466 76.3714 87.895 75.473 87.8842 74.3383L87.8715 72.9932C87.8646 72.272 87.2781 71.691 86.5568 71.691V71.691C85.8471 71.691 85.2655 72.2543 85.2428 72.9637L85.1886 74.6597C85.1541 75.7389 84.2693 76.5959 83.1896 76.5959H82.1647C81.039 76.5959 80.135 75.6671 80.1654 74.5418L80.4804 62.889C80.5106 61.7699 81.4536 60.8935 82.572 60.9452L83.8768 61.0055C84.9767 61.0563 85.8287 61.9867 85.7827 63.0869L85.5829 67.8683C85.554 68.5607 86.1075 69.1378 86.8005 69.1378V69.1378C87.4723 69.1378 88.0173 68.5942 88.0191 67.9224L88.0328 62.7646C88.0358 61.6415 88.9627 60.741 90.0854 60.7706L91.2424 60.801C92.308 60.8291 93.1643 61.6878 93.1893 62.7535L93.4573 74.1969Z" fill="#F86E43"/>
<path d="M108.408 68.018C108.408 68.6973 108.33 69.3543 108.173 69.9889C108.016 70.616 107.788 71.2057 107.49 71.7582C107.199 72.3106 106.84 72.8183 106.415 73.2812C105.997 73.7366 105.523 74.1285 104.992 74.457C104.47 74.7855 103.899 75.043 103.279 75.2297C102.66 75.4088 102.003 75.4984 101.308 75.4984C100.636 75.4984 99.9943 75.4126 99.3821 75.2409C98.7774 75.0692 98.2101 74.8303 97.68 74.5242C97.15 74.2106 96.6684 73.8373 96.2354 73.4043C95.8099 72.9639 95.4441 72.4786 95.138 71.9486C94.8394 71.411 94.6042 70.8362 94.4325 70.224C94.2683 69.6119 94.1861 68.9736 94.1861 68.3091C94.1861 67.6596 94.2645 67.0251 94.4213 66.4054C94.5781 65.7783 94.802 65.1885 95.0932 64.6361C95.3918 64.0836 95.7502 63.576 96.1682 63.1131C96.5863 62.6503 97.0529 62.2509 97.568 61.9149C98.0906 61.579 98.6543 61.3177 99.259 61.131C99.8637 60.9444 100.502 60.8511 101.174 60.8511C102.256 60.8511 103.242 61.019 104.13 61.355C105.026 61.6909 105.788 62.1725 106.415 62.7996C107.049 63.4192 107.538 64.1732 107.882 65.0616C108.233 65.9426 108.408 66.928 108.408 68.018ZM103.436 68.3091C103.436 67.9881 103.387 67.6783 103.29 67.3797C103.201 67.0736 103.066 66.8048 102.887 66.5734C102.708 66.3345 102.484 66.1441 102.215 66.0023C101.954 65.853 101.652 65.7783 101.308 65.7783C100.957 65.7783 100.644 65.8418 100.368 65.9687C100.091 66.0956 99.8525 66.271 99.6509 66.495C99.4568 66.7115 99.3075 66.9691 99.203 67.2677C99.0985 67.5588 99.0462 67.8687 99.0462 68.1971C99.0462 68.5107 99.091 68.8242 99.1806 69.1378C99.2702 69.4513 99.4045 69.735 99.5837 69.9889C99.7629 70.2427 99.9831 70.448 100.244 70.6048C100.513 70.7615 100.823 70.8399 101.174 70.8399C101.525 70.8399 101.838 70.7727 102.115 70.6384C102.398 70.4965 102.637 70.3099 102.831 70.0785C103.025 69.8396 103.175 69.5671 103.279 69.261C103.384 68.9549 103.436 68.6376 103.436 68.3091Z" fill="#F86E43"/>
<path d="M123.033 68.018C123.033 68.6973 122.955 69.3543 122.798 69.9889C122.641 70.616 122.413 71.2057 122.115 71.7582C121.824 72.3106 121.465 72.8183 121.04 73.2812C120.622 73.7366 120.147 74.1285 119.617 74.457C119.095 74.7855 118.524 75.043 117.904 75.2297C117.284 75.4088 116.627 75.4984 115.933 75.4984C115.261 75.4984 114.619 75.4126 114.007 75.2409C113.402 75.0692 112.835 74.8303 112.305 74.5242C111.775 74.2106 111.293 73.8373 110.86 73.4043C110.435 72.9639 110.069 72.4786 109.763 71.9486C109.464 71.411 109.229 70.8362 109.057 70.224C108.893 69.6119 108.811 68.9736 108.811 68.3091C108.811 67.6596 108.889 67.0251 109.046 66.4054C109.203 65.7783 109.427 65.1885 109.718 64.6361C110.017 64.0836 110.375 63.576 110.793 63.1131C111.211 62.6503 111.678 62.2509 112.193 61.9149C112.716 61.579 113.279 61.3177 113.884 61.131C114.489 60.9444 115.127 60.8511 115.799 60.8511C116.881 60.8511 117.867 61.019 118.755 61.355C119.651 61.6909 120.413 62.1725 121.04 62.7996C121.674 63.4192 122.163 64.1732 122.507 65.0616C122.857 65.9426 123.033 66.928 123.033 68.018ZM118.061 68.3091C118.061 67.9881 118.012 67.6783 117.915 67.3797C117.826 67.0736 117.691 66.8048 117.512 66.5734C117.333 66.3345 117.109 66.1441 116.84 66.0023C116.579 65.853 116.277 65.7783 115.933 65.7783C115.582 65.7783 115.269 65.8418 114.993 65.9687C114.716 66.0956 114.477 66.271 114.276 66.495C114.082 66.7115 113.932 66.9691 113.828 67.2677C113.723 67.5588 113.671 67.8687 113.671 68.1971C113.671 68.5107 113.716 68.8242 113.806 69.1378C113.895 69.4513 114.029 69.735 114.209 69.9889C114.388 70.2427 114.608 70.448 114.869 70.6048C115.138 70.7615 115.448 70.8399 115.799 70.8399C116.15 70.8399 116.463 70.7727 116.739 70.6384C117.023 70.4965 117.262 70.3099 117.456 70.0785C117.65 69.8396 117.8 69.5671 117.904 69.261C118.009 68.9549 118.061 68.6376 118.061 68.3091Z" fill="#F86E43"/>
<path d="M131.44 70.6608C132.619 70.6608 133.542 71.6754 133.431 72.8491L133.326 73.9587C133.234 74.9264 132.46 75.6882 131.491 75.7642L125.944 76.199C124.763 76.2915 123.761 75.344 123.788 74.1603L124.053 62.3359C124.077 61.2491 124.965 60.3807 126.052 60.3807H127.752C128.92 60.3807 129.84 61.3773 129.746 62.5414L129.265 68.5001C129.172 69.6642 130.091 70.6608 131.259 70.6608H131.44Z" fill="#F86E43"/>
</svg>
